<svg width="18" height="18" viewBox="0 0 18 18" fill="none" xmlns="http://www.w3.org/2000/svg">
<path d="M4.5 4.7H4.7V4.5V0.75C4.7 0.604131 4.75795 0.464237 4.86109 0.361092C4.96424 0.257946 5.10413 0.2 5.25 0.2H17.25C17.3959 0.2 17.5358 0.257947 17.6389 0.361091C17.7421 0.464236 17.8 0.604131 17.8 0.75V12.75C17.8 12.8959 17.7421 13.0358 17.6389 13.1389C17.5358 13.2421 17.3959 13.3 17.25 13.3H13.5H13.3V13.5V17.25C13.3 17.3959 13.2421 17.5358 13.1389 17.6389C13.0358 17.7421 12.8959 17.8 12.75 17.8H0.75C0.604131 17.8 0.464236 17.7421 0.361091 17.6389C0.257947 17.5358 0.2 17.3959 0.2 17.25V5.25C0.2 5.10413 0.257946 4.96424 0.361091 4.86109C0.464237 4.75795 0.604131 4.7 0.75 4.7H4.5ZM12 16.7H12.2V16.5V6V5.8H12H1.5H1.3V6V16.5V16.7H1.5H12ZM16.5 12.2H16.7V12V1.5V1.3H16.5H6H5.8V1.5V4.5V4.7H6H12.75C12.8959 4.7 13.0358 4.75795 13.1389 4.86109C13.2421 4.96424 13.3 5.10413 13.3 5.25V12V12.2H13.5H16.5Z" fill="white" stroke="#090909" stroke-width="0.4"/>
</svg>
