<svg width="24" height="24" viewBox="0 0 24 24" fill="none" xmlns="http://www.w3.org/2000/svg">
<path d="M3 16H2.5H3ZM3.5 15C3.5 14.7239 3.27614 14.5 3 14.5C2.72386 14.5 2.5 14.7239 2.5 15H3.5ZM9 21.5C9.27614 21.5 9.5 21.2761 9.5 21C9.5 20.7239 9.27614 20.5 9 20.5V21.5ZM8 21V20.5V21ZM9 3.5C9.27614 3.5 9.5 3.27614 9.5 3C9.5 2.72386 9.27614 2.5 9 2.5V3.5ZM2.5 9C2.5 9.27614 2.72386 9.5 3 9.5C3.27614 9.5 3.5 9.27614 3.5 9H2.5ZM21 8H20.5H21ZM20.5 9C20.5 9.27614 20.7239 9.5 21 9.5C21.2761 9.5 21.5 9.27614 21.5 9H20.5ZM15 2.5C14.7239 2.5 14.5 2.72386 14.5 3C14.5 3.27614 14.7239 3.5 15 3.5V2.5ZM16 3V2.5V3ZM16 21V20.5V21ZM15 20.5C14.7239 20.5 14.5 20.7239 14.5 21C14.5 21.2761 14.7239 21.5 15 21.5V20.5ZM21.5 15C21.5 14.7239 21.2761 14.5 21 14.5C20.7239 14.5 20.5 14.7239 20.5 15H21.5ZM21 16H21.5H21ZM3.5 16L3.5 15H2.5L2.5 16H3.5ZM9 20.5H8V21.5H9V20.5ZM2.5 16C2.5 19.0376 4.96243 21.5 8 21.5V20.5C5.51472 20.5 3.5 18.4853 3.5 16H2.5ZM8 3.5H9V2.5H8V3.5ZM3.5 9V8H2.5V9H3.5ZM8 2.5C4.96243 2.5 2.5 4.96243 2.5 8H3.5C3.5 5.51472 5.51472 3.5 8 3.5V2.5ZM20.5 8V9H21.5V8H20.5ZM15 3.5L16 3.5V2.5L15 2.5V3.5ZM21.5 8C21.5 4.96243 19.0376 2.5 16 2.5V3.5C18.4853 3.5 20.5 5.51472 20.5 8H21.5ZM16 20.5H15V21.5H16V20.5ZM20.5 15V16H21.5V15H20.5ZM16 21.5C19.0376 21.5 21.5 19.0376 21.5 16H20.5C20.5 18.4853 18.4853 20.5 16 20.5V21.5ZM8 9.5C7.51446 9.5 7.20061 9.49894 6.96935 9.46785C6.75248 9.43869 6.68451 9.39162 6.64645 9.35355L5.93934 10.0607C6.19417 10.3155 6.50835 10.4149 6.8361 10.4589C7.14948 10.5011 7.54273 10.5 8 10.5V9.5ZM5.5 8C5.5 8.45727 5.49894 8.85052 5.54107 9.1639C5.58514 9.49165 5.68451 9.80583 5.93934 10.0607L6.64645 9.35355C6.60838 9.31549 6.56131 9.24752 6.53215 9.03065C6.50106 8.7994 6.5 8.48554 6.5 8H5.5ZM9.5 8C9.5 8.48554 9.49894 8.7994 9.46785 9.03065C9.43869 9.24752 9.39162 9.31549 9.35355 9.35355L10.0607 10.0607C10.3155 9.80583 10.4149 9.49165 10.4589 9.1639C10.5011 8.85052 10.5 8.45727 10.5 8H9.5ZM8 10.5C8.45727 10.5 8.85052 10.5011 9.1639 10.4589C9.49165 10.4149 9.80583 10.3155 10.0607 10.0607L9.35355 9.35355C9.31549 9.39162 9.24752 9.43869 9.03065 9.46785C8.7994 9.49894 8.48554 9.5 8 9.5V10.5ZM8 6.5C8.48554 6.5 8.7994 6.50106 9.03065 6.53215C9.24752 6.56131 9.31549 6.60838 9.35355 6.64645L10.0607 5.93934C9.80583 5.68451 9.49165 5.58514 9.1639 5.54107C8.85052 5.49894 8.45727 5.5 8 5.5V6.5ZM10.5 8C10.5 7.54273 10.5011 7.14948 10.4589 6.8361C10.4149 6.50835 10.3155 6.19417 10.0607 5.93934L9.35355 6.64645C9.39162 6.68451 9.43869 6.75248 9.46785 6.96935C9.49894 7.20061 9.5 7.51446 9.5 8H10.5ZM8 5.5C7.54273 5.5 7.14948 5.49894 6.8361 5.54107C6.50835 5.58514 6.19417 5.68451 5.93934 5.93934L6.64645 6.64645C6.68451 6.60838 6.75248 6.56131 6.96935 6.53215C7.20061 6.50106 7.51446 6.5 8 6.5V5.5ZM6.5 8C6.5 7.51446 6.50106 7.20061 6.53215 6.96935C6.56131 6.75248 6.60838 6.68451 6.64645 6.64645L5.93934 5.93934C5.68451 6.19417 5.58514 6.50835 5.54107 6.8361C5.49894 7.14948 5.5 7.54273 5.5 8H6.5ZM8 17.5C7.51446 17.5 7.20061 17.4989 6.96935 17.4678C6.75248 17.4387 6.68451 17.3916 6.64645 17.3536L5.93934 18.0607C6.19417 18.3155 6.50835 18.4149 6.8361 18.4589C7.14948 18.5011 7.54273 18.5 8 18.5V17.5ZM5.5 16C5.5 16.4573 5.49894 16.8505 5.54107 17.1639C5.58514 17.4917 5.68451 17.8058 5.93934 18.0607L6.64645 17.3536C6.60838 17.3155 6.56131 17.2475 6.53215 17.0306C6.50106 16.7994 6.5 16.4855 6.5 16H5.5ZM9.5 16C9.5 16.4855 9.49894 16.7994 9.46785 17.0306C9.43869 17.2475 9.39162 17.3155 9.35355 17.3536L10.0607 18.0607C10.3155 17.8058 10.4149 17.4917 10.4589 17.1639C10.5011 16.8505 10.5 16.4573 10.5 16H9.5ZM8 18.5C8.45727 18.5 8.85052 18.5011 9.1639 18.4589C9.49165 18.4149 9.80583 18.3155 10.0607 18.0607L9.35355 17.3536C9.31549 17.3916 9.24752 17.4387 9.03065 17.4678C8.7994 17.4989 8.48554 17.5 8 17.5V18.5ZM8 14.5C8.48554 14.5 8.7994 14.5011 9.03065 14.5322C9.24752 14.5613 9.31549 14.6084 9.35355 14.6464L10.0607 13.9393C9.80583 13.6845 9.49165 13.5851 9.1639 13.5411C8.85052 13.4989 8.45727 13.5 8 13.5V14.5ZM10.5 16C10.5 15.5427 10.5011 15.1495 10.4589 14.8361C10.4149 14.5083 10.3155 14.1942 10.0607 13.9393L9.35355 14.6464C9.39162 14.6845 9.43869 14.7525 9.46785 14.9694C9.49894 15.2006 9.5 15.5145 9.5 16H10.5ZM8 13.5C7.54273 13.5 7.14948 13.4989 6.8361 13.5411C6.50835 13.5851 6.19417 13.6845 5.93934 13.9393L6.64645 14.6464C6.68451 14.6084 6.75248 14.5613 6.96935 14.5322C7.20061 14.5011 7.51446 14.5 8 14.5V13.5ZM6.5 16C6.5 15.5145 6.50106 15.2006 6.53215 14.9694C6.56131 14.7525 6.60838 14.6845 6.64645 14.6464L5.93934 13.9393C5.68451 14.1942 5.58514 14.5083 5.54107 14.8361C5.49894 15.1495 5.5 15.5427 5.5 16H6.5ZM16 17.5C15.5145 17.5 15.2006 17.4989 14.9694 17.4678C14.7525 17.4387 14.6845 17.3916 14.6464 17.3536L13.9393 18.0607C14.1942 18.3155 14.5083 18.4149 14.8361 18.4589C15.1495 18.5011 15.5427 18.5 16 18.5V17.5ZM13.5 16C13.5 16.4573 13.4989 16.8505 13.5411 17.1639C13.5851 17.4917 13.6845 17.8058 13.9393 18.0607L14.6464 17.3536C14.6084 17.3155 14.5613 17.2475 14.5322 17.0306C14.5011 16.7994 14.5 16.4855 14.5 16H13.5ZM17.5 16C17.5 16.4855 17.4989 16.7994 17.4678 17.0306C17.4387 17.2475 17.3916 17.3155 17.3536 17.3536L18.0607 18.0607C18.3155 17.8058 18.4149 17.4917 18.4589 17.1639C18.5011 16.8505 18.5 16.4573 18.5 16H17.5ZM16 18.5C16.4573 18.5 16.8505 18.5011 17.1639 18.4589C17.4917 18.4149 17.8058 18.3155 18.0607 18.0607L17.3536 17.3536C17.3155 17.3916 17.2475 17.4387 17.0306 17.4678C16.7994 17.4989 16.4855 17.5 16 17.5V18.5ZM16 14.5C16.4855 14.5 16.7994 14.5011 17.0306 14.5322C17.2475 14.5613 17.3155 14.6084 17.3536 14.6464L18.0607 13.9393C17.8058 13.6845 17.4917 13.5851 17.1639 13.5411C16.8505 13.4989 16.4573 13.5 16 13.5V14.5ZM18.5 16C18.5 15.5427 18.5011 15.1495 18.4589 14.8361C18.4149 14.5083 18.3155 14.1942 18.0607 13.9393L17.3536 14.6464C17.3916 14.6845 17.4387 14.7525 17.4678 14.9694C17.4989 15.2006 17.5 15.5145 17.5 16H18.5ZM16 13.5C15.5427 13.5 15.1495 13.4989 14.8361 13.5411C14.5083 13.5851 14.1942 13.6845 13.9393 13.9393L14.6464 14.6464C14.6845 14.6084 14.7525 14.5613 14.9694 14.5322C15.2006 14.5011 15.5145 14.5 16 14.5V13.5ZM14.5 16C14.5 15.5145 14.5011 15.2006 14.5322 14.9694C14.5613 14.7525 14.6084 14.6845 14.6464 14.6464L13.9393 13.9393C13.6845 14.1942 13.5851 14.5083 13.5411 14.8361C13.4989 15.1495 13.5 15.5427 13.5 16H14.5Z" fill="white"/>
</svg>
