<svg width="15" height="14" viewBox="0 0 15 14" fill="none" xmlns="http://www.w3.org/2000/svg">
<path d="M14.5118 3.20091L8.16084 13.3159C8.08336 13.4388 7.97591 13.54 7.84858 13.6099C7.72126 13.6799 7.57824 13.7163 7.43296 13.7158C7.28768 13.7153 7.14492 13.6779 7.01807 13.6071C6.89123 13.5362 6.78448 13.4343 6.70784 13.3109L0.480844 3.19691C0.306686 2.91322 0.214608 2.58679 0.214844 2.25391C0.222742 1.76252 0.425206 1.29433 0.777828 0.952019C1.13045 0.609708 1.60444 0.421223 2.09584 0.427906H12.9128C13.9458 0.427906 14.7858 1.24291 14.7858 2.24991C14.7858 2.58391 14.6918 2.91391 14.5118 3.20091ZM2.01084 2.86291L6.64284 10.0069V2.14291H2.49484C2.01484 2.14291 1.80084 2.45991 2.01084 2.86291ZM8.35784 10.0069L12.9908 2.86291C13.2048 2.45991 12.9858 2.14291 12.5058 2.14291H8.35784V10.0069Z" fill="#0088CC"/>
</svg>
